<svg width="64" height="65" viewBox="0 0 64 65" fill="none" xmlns="http://www.w3.org/2000/svg">
<g style="mix-blend-mode:hard-light" opacity="0.6">
<path d="M64 32.4595C64 40.9464 60.6286 49.0857 54.6274 55.0869C48.6263 61.0881 40.4869 64.4595 32 64.4595C23.5131 64.4595 15.3737 61.0881 9.37258 55.0869C3.37142 49.0857 0 40.9464 0 32.4595C0 23.9725 3.37142 15.8332 9.37258 9.83206C15.3737 3.83089 23.5131 0.459473 32 0.459473C40.4869 0.459473 48.6263 3.83089 54.6274 9.83206C60.6286 15.8332 64 23.9725 64 32.4595ZM34 18.4595C34 17.929 33.7893 17.4203 33.4142 17.0453C33.0391 16.6702 32.5304 16.4595 32 16.4595C31.4696 16.4595 30.9609 16.6702 30.5858 17.0453C30.2107 17.4203 30 17.929 30 18.4595V41.6315L21.416 33.0435C21.0405 32.6679 20.5311 32.4569 20 32.4569C19.4689 32.4569 18.9595 32.6679 18.584 33.0435C18.2085 33.419 17.9975 33.9284 17.9975 34.4595C17.9975 34.9906 18.2085 35.4999 18.584 35.8755L30.584 47.8755C30.7698 48.0617 30.9905 48.2095 31.2335 48.3103C31.4764 48.4111 31.7369 48.463 32 48.463C32.2631 48.463 32.5236 48.4111 32.7665 48.3103C33.0095 48.2095 33.2302 48.0617 33.416 47.8755L45.416 35.8755C45.7915 35.4999 46.0025 34.9906 46.0025 34.4595C46.0025 33.9284 45.7915 33.419 45.416 33.0435C45.0405 32.6679 44.5311 32.4569 44 32.4569C43.4689 32.4569 42.9595 32.6679 42.584 33.0435L34 41.6315V18.4595Z" fill="white" fill-opacity="0.6"/>
</g>
</svg>
